PathFileType	4	(X/Y/Z)	C:\Users\Basilio\Documents\Thesis Gigler\squatting_fais\c3dfiles\073\SJ_pre3\markers_experimental.trc
DataRate	CameraRate	NumFrames	NumMarkers	Units	OrigDataRate	OrigDataStartFrame	OrigNumFrames
200.000000	200.000000	4	61	mm	200.000000	1155	1320
Frame#	Time	FHD			LBHD			RBHD			C7			T10			CLAV			LSHO			LUUPA			LMUPA			LDUPA			LLEP			LMEP			LRAD			LUL			LRFIN			RSHO			RUPA1			RMUPA			RDUPA			RLEP			RMEP			RRAD			RUL			RUFIN			LASI			RASI			USACR			LSACR			RSACR			LTHI1			LTHI2			LTHI3			LTHI4			LLFC			LMFC			LTIB1			LTIB2			LTIB3			LTIB4			LLMAL			LMMAL			LHEE			LMT1			LMT2			LMT5			RTHI			RTHI2			RTHI3			RTHI4			RLFC			RMFC			RTIB1			RTIB2			RTIB3			RTIB4			RLMAL			RMMAL			RHEE			RMT1			RMT2			RMT5			
		X1	Y1	Z1	X2	Y2	Z2	X3	Y3	Z3	X4	Y4	Z4	X5	Y5	Z5	X6	Y6	Z6	X7	Y7	Z7	X8	Y8	Z8	X9	Y9	Z9	X10	Y10	Z10	X11	Y11	Z11	X12	Y12	Z12	X13	Y13	Z13	X14	Y14	Z14	X15	Y15	Z15	X16	Y16	Z16	X17	Y17	Z17	X18	Y18	Z18	X19	Y19	Z19	X20	Y20	Z20	X21	Y21	Z21	X22	Y22	Z22	X23	Y23	Z23	X24	Y24	Z24	X25	Y25	Z25	X26	Y26	Z26	X27	Y27	Z27	X28	Y28	Z28	X29	Y29	Z29	X30	Y30	Z30	X31	Y31	Z31	X32	Y32	Z32	X33	Y33	Z33	X34	Y34	Z34	X35	Y35	Z35	X36	Y36	Z36	X37	Y37	Z37	X38	Y38	Z38	X39	Y39	Z39	X40	Y40	Z40	X41	Y41	Z41	X42	Y42	Z42	X43	Y43	Z43	X44	Y44	Z44	X45	Y45	Z45	X46	Y46	Z46	X47	Y47	Z47	X48	Y48	Z48	X49	Y49	Z49	X50	Y50	Z50	X51	Y51	Z51	X52	Y52	Z52	X53	Y53	Z53	X54	Y54	Z54	X55	Y55	Z55	X56	Y56	Z56	X57	Y57	Z57	X58	Y58	Z58	X59	Y59	Z59	X60	Y60	Z60	X61	Y61	Z61	

1156	5.775	-180.2845916748047	1567.206298828125	-1165.833129882813	-311.1808471679688	1611.298217773438	-1183.863525390625	-327.7384948730469	1630.9921875	-1050.745727539063	-420.0020751953126	1526.480102539063	-1093.845458984375	-513.5596313476564	1191.534790039063	-1043.315795898438	-312.3043823242188	1419.65380859375	-1083.736938476563	-344.5044555664063	1431.641845703125	-1256.240478515625	-431.8699951171876	1337.39208984375	-1361.514892578125	-416.4700317382814	1289.36279296875	-1359.7744140625	-465.0819702148439	1286.28369140625	-1396.780883789063	-506.5117187500001	1199.46875	-1436.061767578125	-577.2013549804689	1191.323486328125	-1390.598510742188	-424.6771240234376	1015.95068359375	-1263.7236328125	-392.0193786621095	989.0638427734377	-1323.947265625	-381.3007812500001	1010.707275390625	-1218.83642578125	-320.7687683105469	1472.03076171875	-916.9998168945315	-416.271453857422	1407.181030273438	-769.486267089844	-405.1400756835939	1359.894409179688	-760.7077026367189	-453.458465576172	1367.90234375	-725.7158813476564	-484.7243957519532	1295.625	-674.3270263671876	-558.2951660156251	1282.419067382813	-730.9194946289064	-468.9572753906251	1054.4990234375	-795.040222167969	-428.1619262695314	1039.34033203125	-733.1260986328126	-407.934051513672	1036.313354492188	-835.9071044921877	-345.4686584472657	1023.720764160156	-1157.48779296875	-351.7016296386719	1021.602722167969	-902.9505615234377	-530.5407104492189	1082.452514648438	-1028.653076171875	-542.1369018554689	1054.25146484375	-1056.963623046875	-545.8447265625001	1051.881469726563	-1001.263244628906	-428.0086975097657	715.4478759765626	-1235.90087890625	-405.9815673828126	634.4015502929689	-1222.966918945313	-366.7715454101563	630.7852783203126	-1193.60498046875	-443.9289855957032	588.2874755859376	-1221.276245117188	-452.3816528320314	528.2760009765626	-1228.189086914063	-458.5535888671876	510.2652282714845	-1090.151977539063	-392.2904663085939	331.8334960937501	-1188.587158203125	-449.8354492187501	286.9649353027344	-1237.573364257813	-407.1773681640626	283.7023315429688	-1220.34130859375	-396.755828857422	205.1321868896485	-1188.987915039063	-453.7375488281251	83.58289337158205	-1208.843872070313	-432.5525817871095	106.1552352905274	-1126.759765625	-502.7146301269532	48.9674415588379	-1159.910278320313	-274.1822814941407	57.13510131835939	-1154.294311523438	-277.6960144042969	57.07640075683595	-1192.409301757813	-318.3870849609376	35.05403518676759	-1242.829467773438	-437.5740051269532	801.8020019531252	-802.6239013671877	-398.2916259765626	751.1698608398439	-785.2120361328127	-364.5935668945313	754.1374511718751	-788.3444824218752	-417.6584472656251	668.8046875000001	-791.327331542969	-384.4171752929689	526.8099365234376	-769.5659179687502	-366.0504455566407	485.4117431640626	-892.2302856445315	-336.0865173339844	350.5048522949219	-813.6514892578127	-368.2932434082032	286.7390136718751	-732.2706298828126	-340.2335815429688	275.5616455078126	-769.8823852539065	-357.4366149902344	224.2375488281251	-792.0056152343752	-413.675018310547	105.1075668334961	-714.0238647460939	-395.415252685547	111.5806045532227	-803.7351684570315	-478.1202697753907	60.92148971557619	-768.6340332031252	-250.7594757080079	57.20471191406251	-751.6317749023439	-254.7703399658204	61.23106384277345	-710.0357055664064	-301.2410278320313	42.15390014648438	-666.3208618164064	
1157	5.78	-180.4213256835938	1566.8662109375	-1166.128540039063	-311.3011474609376	1611.145385742188	-1184.114624023438	-327.7139892578126	1631.013793945313	-1050.986083984375	-420.1073303222657	1526.474853515625	-1094.046020507813	-513.8559570312501	1191.606201171875	-1043.359741210938	-312.5917358398438	1419.659545898438	-1083.848999023438	-344.6777648925782	1431.50439453125	-1256.333374023438	-431.994598388672	1337.107299804688	-1361.600463867188	-416.5525207519532	1289.183227539063	-1359.894409179688	-465.0992736816407	1285.953735351563	-1396.992309570313	-506.4711303710939	1199.072387695313	-1436.1650390625	-577.2109375000001	1191.02099609375	-1390.698364257813	-424.6724853515626	1015.789306640625	-1263.527587890625	-391.9597167968751	988.8750610351565	-1323.639526367188	-381.3625488281251	1010.669921875	-1218.568481445313	-321.0857238769532	1472.080688476563	-917.0911254882815	-416.7650146484376	1407.513916015625	-769.6884765625002	-405.5561523437501	1360.2353515625	-760.7614746093751	-453.9943237304689	1368.26708984375	-725.9032592773439	-485.2207336425782	1296.027465820313	-674.4218750000001	-558.7679443359376	1282.81591796875	-731.1197509765626	-469.4888610839845	1054.824340820313	-794.9295654296877	-428.7550354003907	1039.716186523438	-732.9541625976564	-408.3425903320314	1036.618774414063	-835.6838989257815	-345.6136474609376	1023.732421875	-1157.173095703125	-352.0048828125001	1021.975219726563	-902.5341796875002	-530.8574829101564	1082.470458984375	-1028.522705078125	-543.3610839843751	1054.503295898438	-1056.562377929688	-546.2277221679689	1052.011596679688	-1001.09130859375	-428.0408325195314	715.4207153320314	-1235.689086914063	-405.998260498047	634.3836059570314	-1222.865478515625	-366.8114624023438	630.7722167968751	-1193.41015625	-443.9113769531251	588.2603759765626	-1221.122436523438	-452.4298400878907	528.2441406250001	-1228.0771484375	-458.5989990234376	510.2012023925782	-1090.014404296875	-392.2695312500001	331.8391418457032	-1188.489990234375	-449.8408203125001	287.0093994140626	-1237.51025390625	-407.1896972656251	283.7155456542969	-1220.3115234375	-396.7308044433595	205.163314819336	-1188.9423828125	-453.7503662109376	83.57466125488283	-1208.865234375	-432.5650939941407	106.1740646362305	-1126.768798828125	-502.7182617187501	48.96326828002931	-1159.927612304688	-274.0972290039063	57.19326400756837	-1154.291870117188	-277.6937561035157	57.14012908935548	-1192.45361328125	-318.3683776855469	35.08186721801759	-1242.828491210938	-437.8798217773439	801.9793090820315	-802.386901855469	-398.6359863281251	751.4074707031251	-784.876647949219	-364.8882446289063	754.3610839843751	-788.063171386719	-417.9640502929689	669.0037841796876	-790.9500732421877	-384.7933349609376	527.0412597656251	-769.1593017578127	-366.3879089355469	485.7136230468751	-891.8633422851565	-336.4608154296876	350.6407470703126	-813.304138183594	-368.5906372070313	286.9585571289063	-731.8439331054689	-340.5455932617188	275.7234497070313	-769.5255126953127	-357.7399291992188	224.4268493652344	-791.6248168945315	-413.9056701660157	105.2745742797852	-713.5496826171876	-395.8265380859376	111.8026657104492	-803.381042480469	-478.4978637695314	61.10193252563478	-768.0356445312502	-251.0469512939454	57.30649948120119	-751.6859741210939	-254.9695739746094	61.38522720336915	-710.0819702148439	-301.3404235839844	42.24943161010743	-666.2585449218751	
1158	5.785	-180.5752868652344	1566.513061523438	-1166.16650390625	-311.3932800292969	1610.96533203125	-1184.311279296875	-327.8048400878907	1630.889526367188	-1051.202758789063	-420.2919921875001	1526.48095703125	-1094.221557617188	-514.1319580078126	1191.666259765625	-1043.338989257813	-312.8148193359376	1419.598999023438	-1083.945556640625	-344.7944641113282	1431.381958007813	-1256.478637695313	-432.062469482422	1336.863647460938	-1361.7255859375	-416.543182373047	1288.942138671875	-1359.960083007813	-465.1398010253907	1285.72509765625	-1397.099609375	-506.4782714843751	1198.647705078125	-1436.149536132813	-577.1806640625001	1190.680053710938	-1390.819580078125	-424.7659912109376	1015.677185058594	-1263.3359375	-391.9640502929689	988.6897583007815	-1323.27978515625	-381.5039978027344	1010.595581054688	-1218.315673828125	-321.4559631347657	1472.19677734375	-917.2974853515627	-417.2276000976564	1407.762084960938	-769.8000488281252	-406.1606750488282	1360.4775390625	-761.0096435546876	-454.5289306640626	1368.586303710938	-726.0549316406251	-485.805633544922	1296.419677734375	-674.4610595703126	-559.2765502929689	1283.130981445313	-731.2232666015626	-469.981903076172	1055.1376953125	-794.7637329101565	-429.2938537597657	1039.991333007813	-732.7230834960939	-408.7669677734376	1036.886474609375	-835.4975585937502	-345.7351989746094	1023.707824707031	-1156.83984375	-352.2948303222657	1022.278625488281	-902.2445068359377	-531.1563720703126	1082.484130859375	-1028.39306640625	-543.6249389648439	1054.496337890625	-1056.424682617188	-546.5170898437501	1052.03125	-1000.958312988281	-428.070037841797	715.5426025390626	-1235.45263671875	-405.9897766113282	634.3874511718751	-1222.763549804688	-366.8099670410157	630.7733764648439	-1193.237182617188	-444.0051574707032	588.2418823242189	-1220.957153320313	-452.3904113769532	528.2078247070314	-1227.937622070313	-458.6853942871095	510.1626892089845	-1089.835815429688	-392.2774658203126	331.8473510742188	-1188.418701171875	-449.8884277343751	286.9886169433594	-1237.406616210938	-407.1649780273439	283.7549438476563	-1220.235717773438	-396.7469482421876	205.1278839111329	-1188.878295898438	-453.7595825195314	83.5563430786133	-1208.857177734375	-432.602508544922	106.1576156616211	-1126.777954101563	-502.7267150878907	48.96687698364259	-1159.915161132813	-274.1743774414063	57.21884536743165	-1154.334350585938	-277.5573730468751	57.2624855041504	-1192.575073242188	-318.3758850097657	35.10102844238282	-1242.823608398438	-438.2296447753907	802.1788330078127	-802.0510864257815	-398.9667358398439	751.5944213867189	-784.5176391601565	-365.2283935546876	754.5163574218751	-787.7407836914065	-418.2812805175782	669.1899414062501	-790.6065673828127	-385.0859375000001	527.2107543945314	-768.7680664062502	-366.7380676269532	485.8077392578126	-891.4058227539065	-336.8291625976563	350.7532348632813	-813.0047607421877	-368.9207153320313	287.1209716796876	-731.3969116210939	-340.8499755859376	275.9189758300782	-769.0891723632815	-358.0526428222657	224.5967254638672	-791.233581542969	-414.1271972656251	105.3925933837891	-713.0866699218751	-396.3469543457032	111.9600524902344	-802.8807373046877	-478.8515930175782	61.26821899414064	-767.3957519531251	-251.3905487060547	57.35313415527345	-751.6552124023439	-255.2412109375001	61.50910949707033	-710.0967407226564	-301.4721069335938	42.36637496948243	-666.1193237304689	
1159	5.79	-180.7305297851563	1566.229125976563	-1166.287963867188	-311.4598083496094	1610.836059570313	-1184.480224609375	-327.8276672363282	1630.904418945313	-1051.363647460938	-420.4655151367189	1526.471313476563	-1094.365600585938	-514.3857421875001	1191.652587890625	-1043.281616210938	-313.0393676757813	1419.527709960938	-1083.972290039063	-344.9222412109376	1431.27734375	-1256.562255859375	-432.1763916015626	1336.592163085938	-1361.748901367188	-416.7268371582032	1288.65234375	-1359.913940429688	-465.2176818847657	1285.39697265625	-1397.156860351563	-506.479461669922	1198.2646484375	-1436.120849609375	-577.1362304687501	1190.338989257813	-1390.805419921875	-424.8025512695314	1015.566955566406	-1263.091796875	-391.938201904297	988.4519653320315	-1323.023071289063	-381.5485229492188	1010.457214355469	-1218.01904296875	-321.8255310058594	1472.230590820313	-917.4885864257815	-417.6632690429689	1408.003784179688	-769.9339599609377	-406.6822814941407	1360.707153320313	-761.1547241210939	-455.0108337402345	1368.850952148438	-726.1877441406251	-486.3605346679689	1296.725463867188	-674.5139770507814	-559.7590942382814	1283.373657226563	-731.2556762695314	-470.3418579101564	1055.427856445313	-794.613464355469	-429.7794494628907	1040.244018554688	-732.5016479492189	-409.1718139648439	1037.081298828125	-835.2515258789065	-345.9285888671876	1023.712158203125	-1156.465942382813	-352.6499633789063	1022.485778808594	-901.9876098632815	-531.3446655273439	1082.534301757813	-1028.222778320313	-543.8335571289064	1054.496215820313	-1056.327514648438	-546.7834472656251	1052.0703125	-1000.791442871094	-428.0536193847657	715.4747314453126	-1235.331787109375	-406.0428161621095	634.3929443359376	-1222.562377929688	-366.9001464843751	630.7280883789064	-1193.056640625	-444.0160217285157	588.2196044921876	-1220.83251953125	-452.4519042968751	528.2333374023439	-1227.820922851563	-458.7444458007814	510.122528076172	-1089.718017578125	-392.3140869140626	331.7973327636719	-1188.297607421875	-449.8724975585939	286.9954833984376	-1237.302856445313	-407.173553466797	283.7556152343751	-1220.1826171875	-396.7691040039064	205.1360321044922	-1188.853271484375	-453.6925354003907	83.58186340332033	-1208.91357421875	-432.5936584472657	106.1840515136719	-1126.796264648438	-502.7246093750001	48.9325294494629	-1159.90625	-274.1641540527344	57.2403907775879	-1154.357055664063	-277.6813659667969	57.24816513061525	-1192.553466796875	-318.4095458984376	35.07358551025391	-1242.8173828125	-438.6101379394532	802.3442382812502	-801.687683105469	-399.2720031738282	751.7315063476564	-784.206970214844	-365.5299072265626	754.7272338867189	-787.3753051757815	-418.6002197265626	669.3831176757814	-790.2490844726565	-385.4313049316407	527.4063110351564	-768.3701782226565	-367.2446594238282	485.8372192382814	-890.9087524414065	-337.2237243652344	350.8292846679688	-812.6292724609377	-369.2861328125001	287.3475646972657	-730.9619750976564	-341.2874450683594	276.0565490722657	-768.6804809570315	-358.4360656738282	224.7743225097657	-790.872253417969	-414.4090270996095	105.5238418579102	-712.5969238281251	-397.0001220703126	112.1114654541016	-802.2434692382815	-479.2500915527345	61.42277908325197	-766.7612915039064	-251.7688598632813	57.40449905395509	-751.5553588867189	-255.6749725341797	61.62651824951173	-710.2308349609376	-301.6214599609376	42.4864845275879	-665.9174804687501	
